<svg width="40" height="40" viewBox="0 0 40 40" fill="none" xmlns="http://www.w3.org/2000/svg">
<path d="M22.3499 18.9938L29.5166 11.484C29.8304 11.1544 30.0067 10.7073 30.0067 10.2411C30.0067 9.77498 29.8304 9.3279 29.5166 8.99827C29.2027 8.66864 28.7771 8.48346 28.3332 8.48346C27.8894 8.48346 27.4637 8.66864 27.1499 8.99827L19.9999 16.5255L12.8499 8.99827C12.5361 8.66864 12.1104 8.48346 11.6666 8.48346C11.2227 8.48346 10.7971 8.66864 10.4832 8.99827C10.1694 9.3279 9.99308 9.77498 9.99308 10.2411C9.99308 10.7073 10.1694 11.1544 10.4832 11.484L17.6499 18.9938L10.4832 26.5035C10.327 26.6663 10.203 26.8599 10.1184 27.0732C10.0338 27.2865 9.99023 27.5153 9.99023 27.7464C9.99023 27.9775 10.0338 28.2063 10.1184 28.4196C10.203 28.6329 10.327 28.8265 10.4832 28.9893C10.6382 29.1533 10.8225 29.2836 11.0256 29.3724C11.2287 29.4613 11.4465 29.5071 11.6666 29.5071C11.8866 29.5071 12.1044 29.4613 12.3075 29.3724C12.5106 29.2836 12.695 29.1533 12.8499 28.9893L19.9999 21.462L27.1499 28.9893C27.3048 29.1533 27.4892 29.2836 27.6923 29.3724C27.8954 29.4613 28.1132 29.5071 28.3332 29.5071C28.5533 29.5071 28.7711 29.4613 28.9742 29.3724C29.1773 29.2836 29.3616 29.1533 29.5166 28.9893C29.6728 28.8265 29.7968 28.6329 29.8814 28.4196C29.966 28.2063 30.0096 27.9775 30.0096 27.7464C30.0096 27.5153 29.966 27.2865 29.8814 27.0732C29.7968 26.8599 29.6728 26.6663 29.5166 26.5035L22.3499 18.9938Z" fill="#ffffff"/>
</svg>
