<svg width="40" height="40" viewBox="0 0 40 40" fill="none" xmlns="http://www.w3.org/2000/svg">
<path d="M20 22.5C21.3807 22.5 22.5 21.3807 22.5 20C22.5 18.6193 21.3807 17.5 20 17.5C18.6193 17.5 17.5 18.6193 17.5 20C17.5 21.3807 18.6193 22.5 20 22.5Z" fill="#231F20"/>
<path d="M33.8667 15.6167H32.05C31.8167 15.6167 31.65 15.4333 31.55 15.1833C31.4905 15.0915 31.4588 14.9844 31.4588 14.875C31.4588 14.7656 31.4905 14.6585 31.55 14.5667L32.9 13.3333C33.1646 13.0788 33.3749 12.7734 33.5181 12.4353C33.6613 12.0973 33.7346 11.7338 33.7334 11.3667C33.733 10.9973 33.6591 10.6318 33.5161 10.2912C33.373 9.95073 33.1636 9.64211 32.9 9.38334L30.6667 7.10001C30.408 6.83948 30.1003 6.63272 29.7613 6.49162C29.4224 6.35052 29.0589 6.27788 28.6917 6.27788C28.3246 6.27788 27.961 6.35052 27.6221 6.49162C27.2831 6.63272 26.9754 6.83948 26.7167 7.10001L25.4334 8.33334C25.3314 8.39868 25.2128 8.43341 25.0917 8.43341C24.9706 8.43341 24.852 8.39868 24.75 8.33334C24.6494 8.29581 24.5615 8.23045 24.4966 8.14488C24.4317 8.0593 24.3924 7.95704 24.3834 7.85001V6.13334C24.3837 5.40495 24.1002 4.70511 23.593 4.18233C23.0857 3.65956 22.3948 3.35502 21.6667 3.33334H18.4334C17.6892 3.33333 16.9753 3.6278 16.4476 4.15242C15.9198 4.67705 15.6211 5.38921 15.6167 6.13334V7.95001C15.6167 8.18334 15.4334 8.35001 15.1834 8.45001C15.0916 8.50955 14.9845 8.54124 14.875 8.54124C14.7656 8.54124 14.6585 8.50955 14.5667 8.45001L13.3334 7.10001C12.8055 6.57529 12.0943 6.27645 11.35 6.26668C10.9832 6.26739 10.6202 6.34149 10.2825 6.4846C9.94474 6.62772 9.63904 6.83696 9.38337 7.10001L7.10004 9.33334C6.8319 9.59287 6.61868 9.90366 6.47306 10.2472C6.32745 10.5908 6.25241 10.9602 6.25241 11.3333C6.25241 11.7065 6.32745 12.0759 6.47306 12.4194C6.61868 12.763 6.8319 13.0738 7.10004 13.3333L8.33337 14.5667C8.39871 14.6687 8.43344 14.7872 8.43344 14.9083C8.43344 15.0295 8.39871 15.148 8.33337 15.25C8.29584 15.3507 8.23048 15.4386 8.14491 15.5035C8.05933 15.5684 7.95707 15.6077 7.85004 15.6167H6.13337C5.39077 15.6167 4.67858 15.9117 4.15348 16.4368C3.62837 16.9619 3.33337 17.6741 3.33337 18.4167V21.5667C3.33336 22.3108 3.62783 23.0247 4.15246 23.5525C4.67708 24.0802 5.38924 24.3789 6.13337 24.3833H7.95004C8.18337 24.3833 8.35004 24.5667 8.45004 24.8167C8.50958 24.9085 8.54127 25.0156 8.54127 25.125C8.54127 25.2344 8.50958 25.3415 8.45004 25.4333L7.10004 26.6667C6.57532 27.1945 6.27648 27.9058 6.26671 28.65C6.26614 29.0195 6.33958 29.3854 6.48271 29.726C6.62583 30.0666 6.83574 30.3751 7.10004 30.6333L9.33337 32.9C9.59208 33.1605 9.89977 33.3673 10.2387 33.5084C10.5777 33.6495 10.9412 33.7221 11.3084 33.7221C11.6755 33.7221 12.0391 33.6495 12.378 33.5084C12.717 33.3673 13.0247 33.1605 13.2834 32.9L14.5667 31.6667C14.6687 31.6013 14.7873 31.5666 14.9084 31.5666C15.0295 31.5666 15.1481 31.6013 15.25 31.6667C15.3507 31.7042 15.4386 31.7696 15.5035 31.8551C15.5684 31.9407 15.6077 32.043 15.6167 32.15V33.9667C15.6426 34.6918 15.949 35.3786 16.4713 35.8822C16.9937 36.3859 17.6911 36.6671 18.4167 36.6667H21.5667C22.3109 36.6667 23.0248 36.3722 23.5525 35.8476C24.0803 35.323 24.379 34.6108 24.3834 33.8667V32.05C24.3834 31.8167 24.5667 31.65 24.8167 31.55C24.9085 31.4905 25.0156 31.4588 25.125 31.4588C25.2345 31.4588 25.3416 31.4905 25.4334 31.55L26.7 32.8333C27.2279 33.3581 27.9391 33.6569 28.6834 33.6667C29.0502 33.666 29.4132 33.5919 29.7509 33.4487C30.0887 33.3056 30.3944 33.0964 30.65 32.8333L32.8834 30.6C33.1439 30.3413 33.3507 30.0336 33.4918 29.6946C33.6329 29.3557 33.7055 28.9922 33.7055 28.625C33.7055 28.2579 33.6329 27.8943 33.4918 27.5554C33.3507 27.2164 33.1439 26.9087 32.8834 26.65L31.6667 25.4333C31.6072 25.3415 31.5755 25.2344 31.5755 25.125C31.5755 25.0156 31.6072 24.9085 31.6667 24.8167C31.7042 24.716 31.7696 24.6281 31.8552 24.5632C31.9407 24.4983 32.043 24.459 32.15 24.45H33.9667C34.689 24.4242 35.3733 24.1201 35.8765 23.6014C36.3797 23.0826 36.6629 22.3894 36.6667 21.6667V18.4333C36.6667 17.6892 36.3723 16.9753 35.8476 16.4475C35.323 15.9198 34.6108 15.6211 33.8667 15.6167ZM20 25.8333C18.8463 25.8333 17.7185 25.4912 16.7592 24.8503C15.7999 24.2093 15.0523 23.2982 14.6107 22.2323C14.1692 21.1664 14.0537 19.9935 14.2788 18.862C14.5039 17.7304 15.0594 16.691 15.8753 15.8752C16.6911 15.0594 17.7305 14.5038 18.862 14.2788C19.9936 14.0537 21.1665 14.1692 22.2324 14.6107C23.2983 15.0522 24.2093 15.7999 24.8503 16.7592C25.4913 17.7185 25.8334 18.8463 25.8334 20C25.8334 21.5471 25.2188 23.0308 24.1248 24.1248C23.0309 25.2188 21.5471 25.8333 20 25.8333Z" fill="#231F20"/>
</svg>
