<svg width="225" height="225" viewBox="0 0 225 225" fill="none" xmlns="http://www.w3.org/2000/svg">
<path d="M177.946 103.022H66.87L100.867 62.1881C102.457 60.2755 103.222 57.8097 102.993 55.3332C102.765 52.8567 101.562 50.5723 99.6497 48.9826C97.7371 47.3929 95.2713 46.6281 92.7948 46.8564C90.3183 47.0847 88.0339 48.2875 86.4442 50.2001L39.616 106.394C39.301 106.841 39.0192 107.31 38.7731 107.799C38.7731 108.267 38.7731 108.548 38.1175 109.016C37.693 110.09 37.4707 111.233 37.4619 112.388C37.4707 113.543 37.693 114.686 38.1175 115.76C38.1175 116.228 38.1175 116.509 38.7731 116.977C39.0192 117.465 39.301 117.935 39.616 118.382L86.4442 174.576C87.3248 175.633 88.4275 176.483 89.6739 177.066C90.9203 177.649 92.2798 177.95 93.6557 177.947C95.844 177.952 97.9647 177.19 99.6497 175.793C100.598 175.007 101.382 174.041 101.957 172.952C102.531 171.862 102.885 170.67 102.998 169.443C103.111 168.216 102.981 166.98 102.616 165.803C102.25 164.627 101.656 163.534 100.867 162.588L66.87 121.754H177.946C180.43 121.754 182.813 120.767 184.569 119.01C186.325 117.254 187.312 114.872 187.312 112.388C187.312 109.904 186.325 107.522 184.569 105.765C182.813 104.009 180.43 103.022 177.946 103.022Z" fill="#231F20"/>
</svg>
